<svg width="24" height="24" viewBox="0 0 24 24" fill="none" xmlns="http://www.w3.org/2000/svg">
<path d="M12 0.375C18.4219 0.375 23.625 5.57812 23.625 12C23.625 18.4219 18.4219 23.625 12 23.625C5.57812 23.625 0.375 18.4219 0.375 12C0.375 5.57812 5.57812 0.375 12 0.375ZM15.75 8.25C14.9062 8.25 14.25 8.95312 14.25 9.75C14.25 10.5938 14.9062 11.25 15.75 11.25C16.5469 11.25 17.25 10.5938 17.25 9.75C17.25 8.95312 16.5469 8.25 15.75 8.25ZM8.25 8.25C7.40625 8.25 6.75 8.95312 6.75 9.75C6.75 10.5938 7.40625 11.25 8.25 11.25C9.04688 11.25 9.75 10.5938 9.75 9.75C9.75 8.95312 9.04688 8.25 8.25 8.25ZM12 20.25C14.8125 20.25 18.2812 18.4688 18.7031 15.8906C18.7969 15.3281 18.2812 14.9062 17.7656 15.0469C16.3125 15.5156 14.25 15.75 12 15.75C9.75 15.75 7.64062 15.5156 6.1875 15.0469C5.67188 14.9062 5.15625 15.3281 5.25 15.8906C5.67188 18.4688 9.14062 20.25 12 20.25Z" fill="url(#paint0_linear_187_34979)"/>
<defs>
<linearGradient id="paint0_linear_187_34979" x1="0.0309161" y1="25.9082" x2="30.3825" y2="11.0274" gradientUnits="userSpaceOnUse">
<stop stop-color="#2970FF"/>
<stop offset="1" stop-color="#0040C1"/>
</linearGradient>
</defs>
</svg>
