<svg width="29" height="25" viewBox="0 0 29 25" fill="none" xmlns="http://www.w3.org/2000/svg">
<path d="M27.6719 21.6719C28.5156 23.1719 27.4375 25 25.7031 25H3.25C1.51562 25 0.4375 23.125 1.28125 21.6719L12.5312 2.125C13.375 0.625 15.5781 0.671875 16.4219 2.125L27.6719 21.6719ZM14.5 17.5938C13.2812 17.5938 12.3438 18.5781 12.3438 19.75C12.3438 20.9688 13.2812 21.9062 14.5 21.9062C15.6719 21.9062 16.6562 20.9688 16.6562 19.75C16.6562 18.5781 15.6719 17.5938 14.5 17.5938ZM12.4375 9.85938L12.7656 16.2344C12.8125 16.5625 13.0469 16.75 13.3281 16.75H15.625C15.9062 16.75 16.1406 16.5625 16.1875 16.2344L16.5156 9.85938C16.5625 9.53125 16.2812 9.25 15.9531 9.25H13C12.6719 9.25 12.3906 9.53125 12.4375 9.85938Z" fill="#F04438"/>
</svg>
