<svg width="103" height="49" viewBox="0 0 103 49" fill="none" xmlns="http://www.w3.org/2000/svg">
<g id="Group 2">
<path id="Vector" d="M0.157227 47.9078C13.2131 31.9686 25.7225 16.6865 38.5124 1.06509C53.1355 16.5349 67.658 31.8963 82.7916 47.9078C76.6734 47.9078 71.4324 48.0306 66.2057 47.8139C65.077 47.7706 63.8261 46.68 62.9346 45.7773C55.5296 38.324 48.2036 30.7914 40.8345 23.2948C39.9718 22.4209 39.0516 21.6048 37.9085 20.5287C34.0334 24.9198 30.2446 29.2097 26.2186 33.7741C27.0526 34.5541 27.8075 35.2619 28.6989 36.0924C31.8982 32.4813 34.8818 29.1158 37.7791 25.8514C40.4463 28.4153 42.9913 30.8708 45.7017 33.4852C41.726 37.999 37.8078 42.5056 33.7962 46.9184C33.2785 47.4889 32.2433 47.8645 31.4453 47.8717C21.3227 47.9367 11.2001 47.915 0.157227 47.915L0.157227 47.9078Z" fill="white"/>
<path id="Vector_2" d="M102.843 48.2183C97.3212 48.2183 92.7057 48.2689 88.0973 48.1678C87.2993 48.1533 86.3072 47.7056 85.7608 47.1206C74.2363 34.843 62.7621 22.522 51.0938 10.0061C53.8473 6.90056 56.4498 3.96116 59.2752 0.768982C73.6899 16.4627 87.9607 32.0047 102.843 48.2111V48.2183Z" fill="#22B573"/>
</g>
</svg>
